<svg width="68" height="68" viewBox="0 0 68 68" fill="none" xmlns="http://www.w3.org/2000/svg">
<path d="M62.0642 14.8004C55.9381 5.86308 45.6537 0 34 0C15.2223 0 0 15.2223 0 34C0 36.7319 0.322206 39.3885 0.93066 41.9339L18.2448 24.6198C19.9045 22.9601 22.5955 22.9601 24.2552 24.6198L38.25 38.6146L62.0642 14.8004Z" fill="#8365E2"/>
<path d="M66.1052 22.7802L41.2552 47.6302C39.5955 49.2899 36.9045 49.2899 35.2448 47.6302L21.25 33.6354L4.30811 50.5773C10.1243 60.9726 21.2415 68 34 68C52.7777 68 68 52.7777 68 34C68 30.0685 67.3327 26.2929 66.1052 22.7802Z" fill="#8365E2"/>
</svg>
